# xmcd
#
# Track frame offsets:
#	150
#	16244
#	29051
#	45870
#	61050
#	76732
#	94373
#	118009
#	133836
#	151676
#	167176
#	182712
#	196099
#	210900
#	228444
#	245326
#
# Disc length: 3448 seconds
#
# Revision: 1
# Processed by: cddbd v1.5.2PL0 Copyright (c) Steve Scherf et al.
# Submitted via: EasyCDDAExtractor 11.5.0.1
#
DISCID=c30d7610
DTITLE=Various Artist - NCT 142
DYEAR=2011
DGENRE=Country
TTITLE0=Reba - If I Were A Boy
TTITLE1=Colt Ford - Country Thang
TTITLE2=David Nail - Let It Rain
TTITLE3=Eli Young Band - Crazy Girl
TTITLE4=Carter's Chord - A Little Less Comfortable
TTITLE5=Star De Azlan - A Man Who Can Dance
TTITLE6=Jamey Johnson - Heartache
TTITLE7=Joanna Smith - Georgia Mud
TTITLE8=Wayne Warner - Unbroken
TTITLE9=Jacob Lyda - I'm Doing Alright
TTITLE10=Rio Grand - I Love Beer
TTITLE11=The Grascals and Dolly Parton - I Am Strong
TTITLE12=Jaydee Bixby - Dream Bigger
TTITLE13=Jody Booth - Gold Digger
TTITLE14=Jason Kirkness - Run Me Away
TTITLE15=Jason Greeley - Live Our Lives
EXTD=
EXTT0=
EXTT1=
EXTT2=
EXTT3=
EXTT4=
EXTT5=
EXTT6=
EXTT7=
EXTT8=
EXTT9=
EXTT10=
EXTT11=
EXTT12=
EXTT13=
EXTT14=
EXTT15=
PLAYORDER=
